<svg width="46" height="50" viewBox="0 0 46 50" fill="none" xmlns="http://www.w3.org/2000/svg">
<path d="M45.2653 49.7547C39.9515 49.777 34.674 49.5086 29.7515 47.1488C26.637 45.6548 24.2444 43.4238 23.1605 40.0398C21.8716 36.0079 23.969 33.621 27.4397 32.5993C28.1814 32.3813 29.1832 32.9215 30.0234 33.2273C30.3538 33.3445 30.6163 33.7546 30.8307 34.0815C34.5978 39.8477 39.5543 44.4831 44.8107 48.8349C45.038 49.0235 45.3274 49.136 45.5887 49.2848L45.2653 49.7547Z" fill="#1775B7"/>
<path d="M19.0646 25.6C20.0172 25.6 20.7894 24.8278 20.7894 23.8752C20.7894 22.9226 20.0172 22.1504 19.0646 22.1504C18.1121 22.1504 17.3398 22.9226 17.3398 23.8752C17.3398 24.8278 18.1121 25.6 19.0646 25.6Z" fill="#1775B7"/>
<path d="M6.96634 10.9405C7.28214 10.9405 7.53815 10.6845 7.53815 10.3687C7.53815 10.0529 7.28214 9.79688 6.96634 9.79688C6.65054 9.79688 6.39453 10.0529 6.39453 10.3687C6.39453 10.6845 6.65054 10.9405 6.96634 10.9405Z" fill="#1775B7"/>
<path d="M6.98099 18.8809H6.95169C6.80136 18.8847 6.65859 18.9476 6.55432 19.056C6.45004 19.1644 6.39265 19.3094 6.39458 19.4598C6.3965 19.6102 6.45759 19.7537 6.56461 19.8594C6.67162 19.965 6.81596 20.0243 6.96634 20.0243C7.11672 20.0243 7.26105 19.965 7.36807 19.8594C7.47509 19.7537 7.53618 19.6102 7.5381 19.4598C7.54003 19.3094 7.48264 19.1644 7.37836 19.056C7.27409 18.9476 7.13132 18.8847 6.98099 18.8809Z" fill="#1775B7"/>
<path d="M30.0668 2.14416C26.9672 0.767574 23.6157 0.0493804 20.2242 0.0350346C13.8195 -0.0176936 7.4089 -0.000117516 0.999493 -0.000117516C0.67375 0.00574118 0.351522 0.0983085 0 0.152209V2.7769H13.4949C13.6082 2.60581 13.7736 2.47577 13.9666 2.40604C14.1596 2.33631 14.37 2.33061 14.5664 2.38977C14.7629 2.44894 14.9352 2.56982 15.0576 2.73452C15.18 2.89922 15.2461 3.09898 15.2461 3.30419C15.2461 3.5094 15.18 3.70915 15.0576 3.87385C14.9352 4.03855 14.7629 4.15943 14.5664 4.2186C14.37 4.27776 14.1596 4.27206 13.9666 4.20233C13.7736 4.1326 13.6082 4.00256 13.4949 3.83147H0V7.01039H11.5006V14.9888C11.6717 15.1021 11.8017 15.2675 11.8715 15.4605C11.9412 15.6535 11.9469 15.8638 11.8877 16.0603C11.8286 16.2568 11.7077 16.429 11.543 16.5514C11.3783 16.6738 11.1785 16.7399 10.9733 16.7399C10.7681 16.7399 10.5684 16.6738 10.4037 16.5514C10.239 16.429 10.1181 16.2568 10.0589 16.0603C9.99975 15.8638 10.0055 15.6535 10.0752 15.4605C10.1449 15.2675 10.275 15.1021 10.446 14.9888V8.0591H0V11.5485H3.42734V22.9015C3.59909 23.0144 3.72987 23.1796 3.80023 23.3727C3.87059 23.5658 3.87679 23.7764 3.8179 23.9733C3.75901 24.1702 3.63818 24.3428 3.47335 24.4656C3.30852 24.5883 3.10849 24.6546 2.90298 24.6546C2.69747 24.6546 2.49745 24.5883 2.33262 24.4656C2.16779 24.3428 2.04695 24.1702 1.98806 23.9733C1.92917 23.7764 1.93537 23.5658 2.00573 23.3727C2.0761 23.1796 2.20687 23.0144 2.37863 22.9015V12.5972H0V49.5879H22.87C20.6531 48.3458 17.9768 47.1272 15.6146 45.4551C12.2997 43.1117 10.5621 39.7136 10.6335 35.6125C10.6878 33.1842 10.9346 30.764 11.3717 28.3747C11.9963 24.8876 11.8498 24.2736 8.972 22.2664C8.9263 22.2348 8.95794 22.0942 8.94154 21.7977C9.96329 21.6009 11.0249 21.4322 12.0654 21.1802C12.6044 21.049 13.209 20.8873 13.6121 20.5393C17.3042 17.3557 23.0071 18.559 24.992 22.9999C25.6189 24.406 26.1087 25.8695 26.7356 27.2733C28.7205 31.7142 30.8847 32.0493 34.5311 28.7895C41.1913 22.8347 41.7947 7.35137 30.0668 2.14416ZM6.96716 20.4233C6.76109 20.4241 6.56031 20.3581 6.39486 20.2353C6.22941 20.1124 6.10819 19.9393 6.04935 19.7418C5.99052 19.5443 5.99722 19.3331 6.06846 19.1397C6.13971 18.9464 6.27166 18.7813 6.44456 18.6692V11.1701C6.27383 11.0568 6.1441 10.8916 6.0746 10.6988C6.0051 10.5061 5.99951 10.2961 6.05866 10.0999C6.11782 9.90374 6.23857 9.73184 6.40304 9.60965C6.56751 9.48746 6.76695 9.42148 6.97184 9.42148C7.17674 9.42148 7.37618 9.48746 7.54065 9.60965C7.70512 9.73184 7.82587 9.90374 7.88502 10.0999C7.94418 10.2961 7.93859 10.5061 7.86909 10.6988C7.79958 10.8916 7.66986 11.0568 7.49913 11.1701V18.6751C7.67051 18.7878 7.80097 18.9528 7.87113 19.1456C7.9413 19.3384 7.94743 19.5487 7.88862 19.7452C7.82982 19.9418 7.70921 20.1141 7.54469 20.2367C7.38017 20.3593 7.18052 20.4255 6.97536 20.4256L6.96716 20.4233Z" fill="#1775B7"/>
<path d="M10.9742 16.3575C11.29 16.3575 11.546 16.1015 11.546 15.7857C11.546 15.4699 11.29 15.2139 10.9742 15.2139C10.6584 15.2139 10.4023 15.4699 10.4023 15.7857C10.4023 16.1015 10.6584 16.3575 10.9742 16.3575Z" fill="#1775B7"/>
<path d="M2.89993 24.2696C3.21573 24.2696 3.47174 24.0136 3.47174 23.6978C3.47174 23.382 3.21573 23.126 2.89993 23.126C2.58413 23.126 2.32812 23.382 2.32812 23.6978C2.32812 24.0136 2.58413 24.2696 2.89993 24.2696Z" fill="#1775B7"/>
<path d="M14.2906 3.87409C14.6064 3.87409 14.8624 3.61808 14.8624 3.30228C14.8624 2.98648 14.6064 2.73047 14.2906 2.73047C13.9748 2.73047 13.7188 2.98648 13.7188 3.30228C13.7188 3.61808 13.9748 3.87409 14.2906 3.87409Z" fill="#1775B7"/>
</svg>
